<svg width="40" height="40" viewBox="0 0 40 40" fill="none" xmlns="http://www.w3.org/2000/svg">
<g clip-path="url(#clip0_152_32)">
<rect width="40" height="40" fill="#2320BA"/>
<path d="M1.79102 1.79224H38.2071V38.208H1.79102V1.79224Z" fill="url(#paint0_radial_152_32)"/>
<path d="M1.66667 1.70933H38.3333V38.2905H1.66667V1.70933ZM0 40H40V0H0V40ZM26.2 14.2564C26.2 14.1196 26.25 14.0512 26.4 14.0512H29.0167C29.15 14.0512 29.2167 14.1025 29.2167 14.2564V27.7436C29.2167 27.8803 29.1833 27.9487 29.0167 27.9487H26.4333C26.2667 27.9487 26.2167 27.8632 26.2167 27.7265V14.2564H26.2ZM26.0167 10.3764C26.0167 9.2824 26.7667 8.6328 27.7167 8.6328C28.7333 8.6328 29.4167 9.3336 29.4167 10.3764C29.4167 11.5045 28.7 12.12 27.6833 12.12C26.7167 12.1196 26.0167 11.5047 26.0167 10.3764ZM18.5167 19.8807C18.05 17.9832 16.9501 13.8465 16.5333 11.8465H16.5C16.15 13.8465 15.2667 17.2311 14.5667 19.8807H18.5167ZM13.8833 22.65L12.5667 27.7777C12.5333 27.9144 12.4833 27.9485 12.3167 27.9485H9.86667C9.7 27.9485 9.66667 27.8972 9.7 27.6921L14.4333 10.7005C14.5167 10.3929 14.5667 10.1193 14.6 9.28173C14.6 9.16173 14.65 9.1108 14.7333 9.1108H18.2333C18.35 9.1108 18.4 9.14493 18.4333 9.28173L23.7333 27.7264C23.7667 27.8631 23.7333 27.9485 23.6 27.9485H20.8333C20.7 27.9485 20.6167 27.9144 20.5833 27.7948L19.2167 22.6495L13.8833 22.65Z" fill="#2D7FFF"/>
</g>
<defs>
<radialGradient id="paint0_radial_152_32" cx="0" cy="0" r="1" gradientUnits="userSpaceOnUse" gradientTransform="translate(13.7851 9.79583) scale(27.676 27.676)">
<stop stop-color="#113799" stop-opacity="0.98"/>
<stop offset="1" stop-color="#1B1F2C"/>
</radialGradient>
<clipPath id="clip0_152_32">
<rect width="40" height="40" fill="white"/>
</clipPath>
</defs>
</svg>
