<svg width="41" height="57" viewBox="0 0 41 57" fill="none" xmlns="http://www.w3.org/2000/svg">
<g clip-path="url(#clip0_145_83)">
<path d="M20.2791 56.4617L3.75472 51.9267L0.0722656 11.0962H40.5354L36.8491 51.9205L20.2791 56.4617Z" fill="#264DE4"/>
<path d="M33.6941 49.3206L36.8441 14.4343H20.3047V52.9902L33.6941 49.3206Z" fill="#2965F1"/>
<path d="M8.51389 29.5781L8.96783 34.5858H20.3036V29.5781H8.51389ZM7.60156 19.4424L8.06201 24.4501H20.3036V19.4424H7.60156ZM20.3036 42.5836L20.2814 42.5894L14.6399 41.0835L14.2792 37.0897H9.19417L9.90379 44.9525L20.2802 47.8L20.3036 47.7938V42.5836Z" fill="#EBEBEB"/>
<path d="M9.59375 0H15.7288V2.53639H12.1594V5.07277H15.7291V7.609H9.59375V0ZM16.956 0H23.0912V2.20554H19.5217V2.64662H23.0912V7.71939H16.9561V5.40331H20.5257V4.96223H16.9558L16.956 0ZM24.3183 0H30.4536V2.20554H26.884V2.64662H30.4536V7.71939H24.3183V5.40331H27.8879V4.96223H24.3185V0H24.3183Z" fill="white"/>
<path d="M32.0601 29.5781L32.9745 19.4424H20.2853V24.4501H27.4231L26.9622 29.5781H20.2853V34.5858H26.523L25.9349 41.0804L20.2852 42.5879V47.7977L30.6699 44.9525L30.746 44.1065L31.9365 30.9228L32.0601 29.5781Z" fill="white"/>
</g>
<defs>
<clipPath id="clip0_145_83">
<rect width="40.5645" height="56.6046" fill="white"/>
</clipPath>
</defs>
</svg>
