<svg width="40" height="40" viewBox="0 0 40 40" fill="none" xmlns="http://www.w3.org/2000/svg">
<path d="M0 10C0 4.47715 4.47715 0 10 0H30C35.5228 0 40 4.47715 40 10V30C40 35.5228 35.5228 40 30 40H10C4.47715 40 0 35.5228 0 30V10Z" fill="#0A3892"/>
<path d="M14.9317 35.0412C17.6993 35.0412 19.9455 32.795 19.9455 30.0274V25.0137H14.9317C12.1641 25.0137 9.91797 27.2598 9.91797 30.0274C9.91797 32.795 12.1641 35.0412 14.9317 35.0412Z" fill="#0ACF83"/>
<path d="M9.91797 20.0003C9.91797 17.2327 12.1641 14.9866 14.9317 14.9866H19.9455V25.0141H14.9317C12.1641 25.0141 9.91797 22.7679 9.91797 20.0003Z" fill="#A259FF"/>
<path d="M9.91797 9.97276C9.91797 7.20515 12.1641 4.95898 14.9317 4.95898H19.9455V14.9865H14.9317C12.1641 14.9865 9.91797 12.7404 9.91797 9.97276Z" fill="#F24E1E"/>
<path d="M19.834 4.95898H24.958C27.7864 4.95898 30.0819 7.18047 30.0819 9.91766C30.0819 12.6549 27.7864 14.8763 24.958 14.8763H19.834V4.95898Z" fill="#FF7262"/>
<path d="M30.0819 20.0002C30.0819 22.8286 27.7864 25.1242 24.958 25.1242C22.1295 25.1242 19.834 22.8286 19.834 20.0002C19.834 17.1718 22.1295 14.8762 24.958 14.8762C27.7864 14.8762 30.0819 17.1718 30.0819 20.0002Z" fill="#1ABCFE"/>
</svg>
