<svg width="41" height="57" viewBox="0 0 41 57" fill="none" xmlns="http://www.w3.org/2000/svg">
<g clip-path="url(#clip0_150_22)">
<path d="M40.9244 11.1736L37.2025 52.2831L20.4724 56.856L3.78835 52.2894L0.0703125 11.1736H40.9244Z" fill="#E44D26"/>
<path d="M20.498 53.3606L34.0168 49.6654L37.1973 14.5354H20.498V53.3606Z" fill="#F16529"/>
<path d="M13.2633 24.6208H20.4986V19.5781H7.67383L7.79618 20.931L9.0533 34.8273H20.4986V29.7846H13.7308L13.2633 24.6208ZM14.416 37.3487H9.28182L9.9983 45.2665L20.475 48.1339L20.4986 48.1276V42.881L20.4761 42.8869L14.7802 41.3704L14.416 37.3487Z" fill="#EBEBEB"/>
<path d="M3.87305 0H6.47217V2.53184H8.84981V0H11.4491V7.66705H8.84997V5.09968H6.47233V7.66705H3.87321L3.87305 0ZM14.8669 2.54258H12.5791V0H19.7557V2.54258H17.4665V7.66705H14.8673V2.54258H14.8669ZM20.8946 0H23.6047L25.2718 2.694L26.9373 0H29.6485V7.66705H27.06V3.86684L25.2718 6.5929H25.227L23.4377 3.86684V7.66705H20.8946V0ZM30.942 0H33.5419V5.13284H37.197V7.66705H30.9419V0H30.942Z" fill="white"/>
<path d="M20.4806 34.8273H26.7786L26.1848 41.3673L20.4805 42.8853V48.1315L30.9655 45.2665L31.0424 44.4145L32.2444 31.1387L32.3692 29.7846H20.4806V34.8273ZM20.4806 24.6085V24.6208H32.8345L32.937 23.4874L33.1702 20.931L33.2924 19.5781H20.4806V24.6085Z" fill="white"/>
</g>
<defs>
<clipPath id="clip0_150_22">
<rect width="41" height="57" fill="white"/>
</clipPath>
</defs>
</svg>
