<svg width="40" height="40" viewBox="0 0 40 40" fill="none" xmlns="http://www.w3.org/2000/svg">
<rect x="1.5" y="1.5" width="37" height="37" rx="3.5" fill="white"/>
<path d="M32.1875 1.875H7.8125C4.18813 1.875 1.25 4.81313 1.25 8.4375V31.5625C1.25 35.1869 4.18813 38.125 7.8125 38.125H32.1875C35.8119 38.125 38.75 35.1869 38.75 31.5625V8.4375C38.75 4.81313 35.8119 1.875 32.1875 1.875Z" fill="#021545"/>
<path d="M9.06184 28.575V11.5625C9.05877 11.5388 9.06119 11.5147 9.0689 11.4921C9.07661 11.4694 9.08941 11.4489 9.10631 11.432C9.12322 11.4151 9.14377 11.4023 9.1664 11.3946C9.18903 11.3868 9.21313 11.3844 9.23684 11.3875C10.504 11.3547 11.9993 11.25 13.9493 11.25C16.2493 11.25 17.9368 11.7297 19.0118 12.7625C19.5341 13.2511 19.9476 13.8443 20.2254 14.5033C20.5032 15.1623 20.6391 15.8725 20.6243 16.5875C20.6243 18.4719 19.9577 19.8719 18.6243 20.7875C17.291 21.7031 15.6139 22.1615 13.5931 22.1625L12.1868 22.1875V28.55C12.1908 28.5772 12.1883 28.6049 12.1796 28.631C12.171 28.657 12.1564 28.6807 12.1369 28.7001C12.1175 28.7195 12.0938 28.7341 12.0678 28.7428C12.0417 28.7515 12.014 28.7539 11.9868 28.75H9.26184C9.12902 28.75 9.06184 28.6922 9.06184 28.575ZM12.1868 13.6906V19.8438C12.1868 19.8438 12.8993 19.8156 13.7493 19.8156C14.867 19.8156 15.7712 19.5698 16.4618 19.0781C17.1525 18.5865 17.4983 17.7812 17.4993 16.6625C17.4993 15.6792 17.1952 14.9208 16.5868 14.3875C15.9785 13.8542 15.0993 13.5896 13.9493 13.5938C13.6665 13.5938 13.3868 13.5938 13.1118 13.6063C12.8368 13.6188 12.6118 13.6188 12.4368 13.6188C12.2618 13.6188 12.1681 13.6125 12.1868 13.6906ZM30.9368 24.6875C30.9368 26.6016 29.6868 27.5 29.6868 27.5V27.4906C29.6118 27.5641 29.5306 27.6328 29.4509 27.7C28.5905 28.4 27.4275 28.75 25.9618 28.75C24.4962 28.75 23.2983 28.4802 22.3681 27.9406C22.3167 27.9227 22.273 27.8876 22.2445 27.8412C22.216 27.7947 22.2045 27.7399 22.2118 27.6859V25.3312C22.2095 25.3047 22.214 25.2779 22.225 25.2536C22.2359 25.2292 22.2529 25.2081 22.2743 25.1922C22.2913 25.18 22.3122 25.1745 22.333 25.1768C22.3538 25.1791 22.373 25.189 22.3868 25.2047C23.3784 25.9838 24.6008 26.4115 25.8618 26.4203C26.4441 26.4203 26.89 26.3161 27.1993 26.1078C27.342 26.0228 27.4601 25.9022 27.5423 25.7579C27.6244 25.6136 27.6678 25.4504 27.6681 25.2844C27.6714 25.1168 27.6398 24.9503 27.5753 24.7956C27.5107 24.641 27.4146 24.5014 27.2931 24.3859C27.0431 24.1401 26.5514 23.874 25.8181 23.5875C24.4837 23.0667 23.5545 22.5052 23.0306 21.9031C22.476 21.2999 22.174 20.5068 22.1868 19.6875C22.1872 19.1778 22.2966 18.6741 22.5079 18.2102C22.7192 17.7464 23.0275 17.3332 23.4118 16.9984C24.1941 16.2891 25.3108 15.9344 26.7618 15.9344C28.116 15.9344 29.1577 16.1203 29.8868 16.4922C29.9696 16.5422 30.0118 16.6484 30.0118 16.8203V18.9219C30.0118 19.125 29.9368 19.175 29.7868 19.0781C28.9176 18.5071 27.9018 18.1994 26.8618 18.1922C26.2775 18.1922 25.8493 18.3031 25.5743 18.5219C25.4492 18.6107 25.3467 18.7277 25.275 18.8634C25.2034 18.9991 25.1646 19.1497 25.1618 19.3031C25.1614 19.4532 25.1923 19.6018 25.2525 19.7393C25.3128 19.8768 25.4011 20.0002 25.5118 20.1016C25.7452 20.3297 26.2368 20.5953 26.9868 20.8984C28.2952 21.4099 29.2327 21.9474 29.7993 22.5109L29.8134 22.525C30.3962 23.0609 30.9368 23.7984 30.9368 24.6875Z" fill="#7AC7FF"/>
<rect x="1.5" y="1.5" width="37" height="37" rx="3.5" stroke="#0540DA" stroke-width="3"/>
</svg>
