<svg width="41" height="40" viewBox="0 0 41 40" fill="none" xmlns="http://www.w3.org/2000/svg">
<g clip-path="url(#clip0_189_103)">
<path d="M34.16 0H6.8C3.04446 0 0 3.04446 0 6.8V33.136C0 36.8915 3.04446 39.936 6.8 39.936H34.16C37.9155 39.936 40.96 36.8915 40.96 33.136V6.8C40.96 3.04446 37.9155 0 34.16 0Z" fill="#0A338B"/>
<path d="M21.532 10.5023L16.4212 18.938L21.8892 27.8956C21.9244 27.9583 21.9341 28.0319 21.9167 28.1017C21.9082 28.1314 21.89 28.1388 21.862 28.1399L21.8309 28.1394L21.7932 28.1385C21.7727 28.1385 21.7498 28.1394 21.7244 28.1436H17.782L17.7045 28.1423C17.492 28.1367 17.3389 28.1063 17.2456 27.9505C16.8808 27.2398 16.5144 26.53 16.1464 25.821C15.8172 25.1887 15.4791 24.561 15.132 23.9383L14.9788 23.6641C14.5637 22.9264 14.1561 22.1844 13.756 21.4385H13.7285C13.3591 22.1766 12.9789 22.9094 12.5882 23.6365C12.1941 24.3693 11.8048 25.0977 11.4204 25.821C11.0356 26.545 10.6418 27.264 10.2389 27.978C10.1741 28.1236 10.0664 28.154 9.91651 28.1589L9.85411 28.1599H6.08979L6.07347 28.1604L6.01971 28.1652C5.98979 28.1669 5.97187 28.1605 5.96611 28.1154C5.95579 28.0484 5.97048 27.98 6.00739 27.9231L11.3104 19.2127L6.14467 10.4751C6.08979 10.4021 6.08067 10.3426 6.11715 10.2965C6.13743 10.2731 6.16289 10.2546 6.19152 10.2427C6.22015 10.2308 6.25116 10.2256 6.28211 10.2277H10.1564C10.2408 10.2231 10.3253 10.2372 10.4037 10.269C10.4693 10.3063 10.5258 10.358 10.5685 10.4202C10.8983 11.153 11.2647 11.8858 11.6677 12.6183C12.0676 13.3462 12.4752 14.0698 12.8904 14.789C13.2993 15.4971 13.6797 16.2213 14.0308 16.9597H14.0583C14.418 16.2215 14.789 15.4887 15.1711 14.7617C15.5463 14.0473 15.9311 13.3281 16.325 12.6045C16.7139 11.8903 17.094 11.1713 17.4653 10.4477C17.4864 10.3799 17.5242 10.3185 17.5752 10.269C17.6431 10.2347 17.7194 10.2203 17.7951 10.2277H21.3946C21.4277 10.2195 21.4626 10.2222 21.494 10.2355C21.5254 10.2488 21.5516 10.2719 21.5688 10.3014C21.5859 10.3309 21.593 10.3651 21.589 10.399C21.585 10.4329 21.5701 10.4645 21.5466 10.4892L21.5322 10.5026L21.532 10.5023ZM29.6072 28.498L29.4178 28.5001C28.1531 28.5193 26.8999 28.2565 25.7495 27.7308C24.6778 27.2348 23.7819 26.4251 23.1804 25.4089C22.5738 24.4015 22.2624 23.1461 22.2468 21.6433L22.2461 21.5209C22.2358 20.2598 22.5581 19.0182 23.1805 17.9213C23.8034 16.8357 24.7115 15.9412 25.8064 15.3348L25.9007 15.2836C27.0911 14.6241 28.5292 14.2943 30.2146 14.2943L30.2882 14.2951L30.3724 14.2978L30.4667 14.302L30.5717 14.3081L30.748 14.3205L30.9477 14.3365L31.0938 14.3493V8.93623C31.0938 8.80823 31.1488 8.74391 31.2586 8.74391H34.7208C34.7432 8.7407 34.766 8.74274 34.7875 8.74989C34.809 8.75704 34.8285 8.76908 34.8445 8.78508C34.8605 8.80107 34.8725 8.82057 34.8796 8.84203C34.8868 8.86349 34.8888 8.88632 34.8856 8.90871V25.1479C34.8856 25.4205 34.8962 25.7143 34.9173 26.0285L34.9685 26.7413L34.9957 27.1537C34.9991 27.2108 34.9852 27.2676 34.9557 27.3166C34.9263 27.3657 34.8827 27.4047 34.8308 27.4285C33.9376 27.801 33.0073 28.0773 32.0556 28.2527C31.2476 28.4018 30.4287 28.4839 29.6072 28.498ZM31.0938 25.0929V17.5916C30.9453 17.5514 30.7937 17.5238 30.6405 17.5092C30.4533 17.4903 30.2653 17.4812 30.0772 17.4817C29.4104 17.4751 28.7515 17.6257 28.1538 17.9213C27.5716 18.2107 27.0746 18.6463 26.7112 19.1853C26.3485 19.7159 26.1608 20.4087 26.1485 21.2637L26.1479 21.3561C26.1345 21.955 26.2323 22.5512 26.4364 23.1145C26.6025 23.5684 26.865 23.9809 27.2059 24.3236C27.5322 24.6388 27.9272 24.8739 28.3599 25.0105C28.8169 25.1585 29.2945 25.2327 29.7749 25.2305C30.0312 25.2305 30.2693 25.2212 30.4893 25.2028C30.6648 25.1896 30.8387 25.1607 31.009 25.1164L31.0938 25.0929Z" fill="#7FAFE7"/>
</g>
<defs>
<clipPath id="clip0_189_103">
<rect width="40.96" height="40" fill="white"/>
</clipPath>
</defs>
</svg>
